<svg height="512pt" viewBox="0 -36 512 512" width="512pt" xmlns="http://www.w3.org/2000/svg"><path d="m452 0h-392c-33.085938 0-60 26.914062-60 60v240c0 33.085938 26.914062 60 60 60h176v40h-104v40h248v-40h-104v-40h176c33.085938 0 60-26.914062 60-60v-240c0-33.085938-26.914062-60-60-60zm20 300c0 11.027344-8.972656 20-20 20h-392c-11.027344 0-20-8.972656-20-20v-240c0-11.027344 8.972656-20 20-20h392c11.027344 0 20 8.972656 20 20zm-136-199.878906h-60v160h60c33.085938 0 60-26.914063 60-60v-40c0-33.082032-26.914062-60-60-60zm20 100c0 11.027344-8.972656 20-20 20h-20v-80h20c11.027344 0 20 8.972656 20 20zm-156.066406 15.867187c-1.335938 1.394531-2.671875 2.773438-3.996094 4.132813h41.0625v40h-108v-30.960938l6.464844-5.945312c.15625-.144532 16.011718-14.738282 32.519531-31.722656 25.3125-26.042969 32.175781-37.125 33.875-40.414063-.953125-6.011719-6.648437-10.957031-13.0625-10.957031h-59.796875v-40h59.796875c29.335937 0 53.203125 23.652344 53.203125 52.726562 0 11.910156-7.035156 26.628906-42.066406 63.140625zm0 0"/></svg>