<?xml version="1.0" encoding="iso-8859-1"?>
<!-- Generator: Adobe Illustrator 18.0.0, SVG Export Plug-In . SVG Version: 6.00 Build 0)  -->
<!DOCTYPE svg PUBLIC "-//W3C//DTD SVG 1.1//EN" "http://www.w3.org/Graphics/SVG/1.1/DTD/svg11.dtd">
<svg version="1.1" id="Capa_1" xmlns="http://www.w3.org/2000/svg" xmlns:xlink="http://www.w3.org/1999/xlink" x="0px" y="0px"
	 viewBox="0 0 290.262 290.262" style="enable-background:new 0 0 290.262 290.262;" xml:space="preserve">
<path id="_x34_8-3D_icon" d="M278.743,33.612H11.519C5.157,33.612,0,38.77,0,45.131v200c0,6.361,5.157,11.519,11.519,11.519h267.225
	c6.361,0,11.519-5.157,11.519-11.519v-200C290.262,38.77,285.104,33.612,278.743,33.612z M127.045,162.625
	c-5.964,18.607-24.728,31.662-47.36,31.662c-13.331,0-25.842-4.721-32.46-11.807l16.005-18.744
	c4.732,7.779,11.771,11.803,20.52,11.803c9.718,0,16.508-4.721,19.046-12.633c2.628-8.193-1.495-12.225-11.218-12.225H76.026
	l4.229-13.188l28.869-22.496H73.717l6.054-18.883h64.152l-4.498,14.021l-32.398,25.273l4.357,0.695
	C124.839,138.326,131.851,147.633,127.045,162.625z M240.3,144.576c-9.213,28.74-36.963,48.596-68.205,48.596H131.27l20.67-64.473
	h24.715l-14.346,44.756h17.633c15.137,0,29.707-11.664,35.182-28.742c5.518-17.217-2.084-29.018-17.776-29.018l-41.233-0.014
	l6.314-19.709h41.797C234.773,95.973,249.558,115.695,240.3,144.576z"/>
<g>
</g>
<g>
</g>
<g>
</g>
<g>
</g>
<g>
</g>
<g>
</g>
<g>
</g>
<g>
</g>
<g>
</g>
<g>
</g>
<g>
</g>
<g>
</g>
<g>
</g>
<g>
</g>
<g>
</g>
</svg>
